<svg width="261" height="261" viewBox="0 0 261 261" fill="none" xmlns="http://www.w3.org/2000/svg">
<g filter="url(#filter0_d_22_681)">
<rect x="40.724" y="36.8909" width="180" height="180" rx="32" fill="white"/>
<rect x="41.224" y="37.3909" width="179" height="179" rx="31.5" stroke="white"/>
</g>
<g clip-path="url(#clip0_17_32)" transform="scale(3.5) translate(21 20)">
<path d="M27 0H5C2.23858 0 0 2.23858 0 5V27C0 29.7614 2.23858 32 5 32H27C29.7614 32 32 29.7614 32 27V5C32 2.23858 29.7614 0 27 0Z" fill="#2867B2"/>
<path d="M11.6 24H8.2V13.3H11.6V24ZM9.9 11.8C8.8 11.8 8 11 8 9.9C8 8.8 8.9 8 9.9 8C11 8 11.8 8.8 11.8 9.9C11.8 11 11 11.8 9.9 11.8ZM24 24H20.6V18.2C20.6 16.5 19.9 16 18.9 16C17.9 16 16.9 16.8 16.9 18.3V24H13.5V13.3H16.7V14.8C17 14.1 18.2 13 19.9 13C21.8 13 23.8 14.1 23.8 17.4V24H24Z" fill="white"/>
</g>
<defs>
<filter id="filter0_d_22_681" x="0.723999" y="0.890869" width="260" height="260" filterUnits="userSpaceOnUse" color-interpolation-filters="sRGB">
<feFlood flood-opacity="0" result="BackgroundImageFix"/>
<feColorMatrix in="SourceAlpha" type="matrix" values="0 0 0 0 0 0 0 0 0 0 0 0 0 0 0 0 0 0 127 0" result="hardAlpha"/>
<feOffset dy="4"/>
<feGaussianBlur stdDeviation="20"/>
<feComposite in2="hardAlpha" operator="out"/>
<feColorMatrix type="matrix" values="0 0 0 0 0.0367917 0 0 0 0 0.0348958 0 0 0 0 0.0484375 0 0 0 0.1 0"/>
<feBlend mode="normal" in2="BackgroundImageFix" result="effect1_dropShadow_22_681"/>
<feBlend mode="normal" in="SourceGraphic" in2="effect1_dropShadow_22_681" result="shape"/>
</filter>
</defs>
</svg>
